<svg width="114" height="25" viewBox="0 0 114 25" fill="none" xmlns="http://www.w3.org/2000/svg">
<path d="M0.23 22.02H2.33V5.04H0.23V3.06H7.79L12.47 13.14H12.59L16.97 3.06H24.65V5.04H22.55V22.02H24.65V24H15.59V22.02H17.69V6.75H17.51L15.77 11.13L11.18 20.79L6.62 11.13L4.85 6.75H4.67V22.02H6.77V24H0.23V22.02ZM31.7445 24.36C30.0445 24.36 28.8045 23.97 28.0245 23.19C27.2645 22.39 26.8845 21.28 26.8845 19.86C26.8845 16.76 29.1745 15.21 33.7545 15.21H35.8545V13.5C35.8545 12.28 35.6245 11.36 35.1645 10.74C34.7045 10.12 33.9045 9.81 32.7645 9.81C32.3445 9.81 31.9845 9.84 31.6845 9.9C31.3845 9.96 31.1245 10.04 30.9045 10.14V10.29C31.1045 10.39 31.2945 10.57 31.4745 10.83C31.6745 11.09 31.7745 11.44 31.7745 11.88C31.7745 12.48 31.5845 12.99 31.2045 13.41C30.8245 13.81 30.2545 14.01 29.4945 14.01C28.8945 14.01 28.3945 13.8 27.9945 13.38C27.5945 12.96 27.3945 12.43 27.3945 11.79C27.3945 11.31 27.5345 10.84 27.8145 10.38C28.0945 9.9 28.5145 9.48 29.0745 9.12C29.6345 8.76 30.3245 8.47 31.1445 8.25C31.9845 8.03 32.9445 7.92 34.0245 7.92C36.2045 7.92 37.8145 8.39 38.8545 9.33C39.8945 10.25 40.4145 11.56 40.4145 13.26V22.02H42.2145V23.73C41.8745 23.93 41.4345 24.08 40.8945 24.18C40.3545 24.3 39.7945 24.36 39.2145 24.36C38.1145 24.36 37.3345 24.11 36.8745 23.61C36.4345 23.09 36.2145 22.45 36.2145 21.69V21.63H36.0345C35.8945 21.97 35.7145 22.3 35.4945 22.62C35.2945 22.94 35.0245 23.23 34.6845 23.49C34.3645 23.75 33.9645 23.96 33.4845 24.12C33.0045 24.28 32.4245 24.36 31.7445 24.36ZM33.4545 21.66C34.1945 21.66 34.7745 21.49 35.1945 21.15C35.6345 20.81 35.8545 20.22 35.8545 19.38V17.01H34.2345C33.2745 17.01 32.5545 17.21 32.0745 17.61C31.6145 18.01 31.3845 18.58 31.3845 19.32V19.8C31.3845 20.44 31.5745 20.91 31.9545 21.21C32.3345 21.51 32.8345 21.66 33.4545 21.66ZM44.1432 22.02H45.9432V11.31L44.1432 10.92V9.21L50.4132 7.92V10.89H50.5332C50.8132 10.05 51.2632 9.35 51.8832 8.79C52.5032 8.21 53.3132 7.92 54.3132 7.92C55.2932 7.92 56.0632 8.19 56.6232 8.73C57.1832 9.25 57.4632 9.97 57.4632 10.89C57.4632 11.69 57.2532 12.32 56.8332 12.78C56.4132 13.24 55.8232 13.47 55.0632 13.47C54.3432 13.47 53.7932 13.28 53.4132 12.9C53.0332 12.5 52.8432 12.03 52.8432 11.49C52.8432 11.25 52.8932 11.03 52.9932 10.83C53.0932 10.63 53.2132 10.5 53.3532 10.44L53.3232 10.29C53.2632 10.27 53.1732 10.26 53.0532 10.26C52.7332 10.26 52.4232 10.35 52.1232 10.53C51.8232 10.71 51.5532 10.94 51.3132 11.22C51.0732 11.5 50.8732 11.81 50.7132 12.15C50.5732 12.49 50.5032 12.82 50.5032 13.14V22.02H52.9032V24H44.1432V22.02ZM60.3076 10.26H58.8976V8.28H66.6076V10.26H64.9276L67.1776 19.44H67.3576L70.4776 8.28H74.0776L77.5876 19.47H77.7676L79.9276 10.26H77.9776V8.28H83.6776V10.26H82.2676L78.2176 24H74.8876L71.4076 13.05H71.2276L67.6876 24H64.3576L60.3076 10.26ZM89.4725 6.21C88.6325 6.21 87.9725 5.98 87.4925 5.52C87.0325 5.06 86.8025 4.44 86.8025 3.66V3.51C86.8025 2.73 87.0325 2.11 87.4925 1.65C87.9725 1.19 88.6325 0.96 89.4725 0.96C90.3125 0.96 90.9625 1.19 91.4225 1.65C91.9025 2.11 92.1425 2.73 92.1425 3.51V3.66C92.1425 4.44 91.9025 5.06 91.4225 5.52C90.9625 5.98 90.3125 6.21 89.4725 6.21ZM85.4225 22.02H87.2225V11.31L85.4225 10.92V9.21L91.7825 7.92V22.02H93.5825V24H85.4225V22.02ZM95.1713 22.02H96.9713V4.59L95.1713 4.2V2.49L101.531 1.2V22.02H103.331V24H95.1713V22.02ZM104.956 22.02H106.756V4.59L104.956 4.2V2.49L111.316 1.2V22.02H113.116V24H104.956V22.02Z" fill="white"/>
</svg>
